<svg id="my-svg" xmlns="http://www.w3.org/2000/svg" xmlns:xlink="http://www.w3.org/1999/xlink" class="flowchart" style="max-width: 1049.26px; background-color: transparent;" viewBox="0 0 1049.26123046875 303.1527404785156" role="graphics-document document" aria-roledescription="flowchart-v2"><style>#my-svg{font-family:"trebuchet ms",verdana,arial,sans-serif;font-size:16px;fill:#000000;}@keyframes edge-animation-frame{from{stroke-dashoffset:0;}}@keyframes dash{to{stroke-dashoffset:0;}}#my-svg .edge-animation-slow{stroke-dasharray:9,5!important;stroke-dashoffset:900;animation:dash 50s linear infinite;stroke-linecap:round;}#my-svg .edge-animation-fast{stroke-dasharray:9,5!important;stroke-dashoffset:900;animation:dash 20s linear infinite;stroke-linecap:round;}#my-svg .error-icon{fill:#552222;}#my-svg .error-text{fill:#552222;stroke:#552222;}#my-svg .edge-thickness-normal{stroke-width:1px;}#my-svg .edge-thickness-thick{stroke-width:3.5px;}#my-svg .edge-pattern-solid{stroke-dasharray:0;}#my-svg .edge-thickness-invisible{stroke-width:0;fill:none;}#my-svg .edge-pattern-dashed{stroke-dasharray:3;}#my-svg .edge-pattern-dotted{stroke-dasharray:2;}#my-svg .marker{fill:#666;stroke:#666;}#my-svg .marker.cross{stroke:#666;}#my-svg svg{font-family:"trebuchet ms",verdana,arial,sans-serif;font-size:16px;}#my-svg p{margin:0;}#my-svg .label{font-family:"trebuchet ms",verdana,arial,sans-serif;color:#000000;}#my-svg .cluster-label text{fill:#333;}#my-svg .cluster-label span{color:#333;}#my-svg .cluster-label span p{background-color:transparent;}#my-svg .label text,#my-svg span{fill:#000000;color:#000000;}#my-svg .node rect,#my-svg .node circle,#my-svg .node ellipse,#my-svg .node polygon,#my-svg .node path{fill:#eee;stroke:#999;stroke-width:1px;}#my-svg .rough-node .label text,#my-svg .node .label text,#my-svg .image-shape .label,#my-svg .icon-shape .label{text-anchor:middle;}#my-svg .node .katex path{fill:#000;stroke:#000;stroke-width:1px;}#my-svg .rough-node .label,#my-svg .node .label,#my-svg .image-shape .label,#my-svg .icon-shape .label{text-align:center;}#my-svg .node.clickable{cursor:pointer;}#my-svg .root .anchor path{fill:#666!important;stroke-width:0;stroke:#666;}#my-svg .arrowheadPath{fill:#333333;}#my-svg .edgePath .path{stroke:#666;stroke-width:1px;}#my-svg .flowchart-link{stroke:#666;fill:none;}#my-svg .edgeLabel{background-color:white;text-align:center;}#my-svg .edgeLabel p{background-color:white;}#my-svg .edgeLabel rect{opacity:0.5;background-color:white;fill:white;}#my-svg .labelBkg{background-color:rgba(255, 255, 255, 0.5);}#my-svg .cluster rect{fill:hsl(0, 0%, 98.9215686275%);stroke:#707070;stroke-width:1px;}#my-svg .cluster text{fill:#333;}#my-svg .cluster span{color:#333;}#my-svg .node .collapsed-indicator{fill:#707070;stroke:none;opacity:0.6;}#my-svg .node .collapsed-separator{stroke:#707070;stroke-width:0.75px;}#my-svg div.mermaidTooltip{position:absolute;text-align:center;max-width:200px;padding:2px;font-family:"trebuchet ms",verdana,arial,sans-serif;font-size:12px;background:hsl(-160, 0%, 93.3333333333%);border:1px solid #707070;border-radius:2px;pointer-events:none;z-index:100;}#my-svg .flowchartTitleText{text-anchor:middle;font-size:18px;fill:#000000;}#my-svg rect.text{fill:none;stroke-width:0;}#my-svg .icon-shape,#my-svg .image-shape{background-color:white;text-align:center;}#my-svg .icon-shape p,#my-svg .image-shape p{background-color:white;padding:2px;}#my-svg .icon-shape .label rect,#my-svg .image-shape .label rect{opacity:0.5;background-color:white;fill:white;}#my-svg .label-icon{display:inline-block;height:1em;overflow:visible;vertical-align:-0.125em;}#my-svg .node .label-icon path{fill:currentColor;stroke:revert;stroke-width:revert;}#my-svg .node .neo-node{stroke:#999;}#my-svg [data-look="neo"].node rect,#my-svg [data-look="neo"].cluster rect,#my-svg [data-look="neo"].node polygon{stroke:url(#my-svg-gradient);filter:drop-shadow( 1px 2px 2px rgba(185,185,185,1));}#my-svg [data-look="neo"].swimlane.cluster rect{filter:none;}#my-svg [data-look="neo"].node path{stroke:url(#my-svg-gradient);stroke-width:1px;}#my-svg [data-look="neo"].node .outer-path{filter:drop-shadow( 1px 2px 2px rgba(185,185,185,1));}#my-svg [data-look="neo"].node .neo-line path{stroke:#999;filter:none;}#my-svg [data-look="neo"].node circle{stroke:url(#my-svg-gradient);filter:drop-shadow( 1px 2px 2px rgba(185,185,185,1));}#my-svg [data-look="neo"].node circle .state-start{fill:#000000;}#my-svg [data-look="neo"].icon-shape .icon{fill:url(#my-svg-gradient);filter:drop-shadow( 1px 2px 2px rgba(185,185,185,1));}#my-svg [data-look="neo"].icon-shape .icon-neo path{stroke:url(#my-svg-gradient);filter:drop-shadow( 1px 2px 2px rgba(185,185,185,1));}#my-svg :root{--mermaid-font-family:"trebuchet ms",verdana,arial,sans-serif;}#my-svg .asset&gt;*{fill:rgb(255, 244, 214)!important;stroke:rgb(168, 133, 0)!important;}#my-svg .asset span{fill:rgb(255, 244, 214)!important;stroke:rgb(168, 133, 0)!important;}#my-svg .output&gt;*{fill:rgb(255, 224, 224)!important;stroke:rgb(204, 51, 51)!important;stroke-width:2px!important;}#my-svg .output span{fill:rgb(255, 224, 224)!important;stroke:rgb(204, 51, 51)!important;stroke-width:2px!important;}#my-svg .sink&gt;*{fill:rgb(204, 51, 51)!important;color:rgb(255, 255, 255)!important;stroke:rgb(122, 31, 31)!important;stroke-width:2px!important;}#my-svg .sink span{fill:rgb(204, 51, 51)!important;color:rgb(255, 255, 255)!important;stroke:rgb(122, 31, 31)!important;stroke-width:2px!important;}#my-svg .sink tspan{fill:rgb(255, 255, 255)!important;}#my-svg .source&gt;*{fill:rgb(217, 236, 255)!important;stroke:rgb(42, 111, 176)!important;}#my-svg .source span{fill:rgb(217, 236, 255)!important;stroke:rgb(42, 111, 176)!important;}</style><g><marker id="my-svg_flowchart-v2-pointEnd" class="marker flowchart-v2" viewBox="0 0 10 10" refX="5" refY="5" markerUnits="userSpaceOnUse" markerWidth="8" markerHeight="8" orient="auto"><path d="M 0 0 L 10 5 L 0 10 z" class="arrowMarkerPath" style="stroke-width: 1; stroke-dasharray: 1, 0;"/></marker><marker id="my-svg_flowchart-v2-pointStart" class="marker flowchart-v2" viewBox="0 0 10 10" refX="4.5" refY="5" markerUnits="userSpaceOnUse" markerWidth="8" markerHeight="8" orient="auto"><path d="M 0 5 L 10 10 L 10 0 z" class="arrowMarkerPath" style="stroke-width: 1; stroke-dasharray: 1, 0;"/></marker><marker id="my-svg_flowchart-v2-pointEnd-margin" class="marker flowchart-v2" viewBox="0 0 11.5 14" refX="11.5" refY="7" markerUnits="userSpaceOnUse" markerWidth="10.5" markerHeight="14" orient="auto"><path d="M 0 0 L 11.5 7 L 0 14 z" class="arrowMarkerPath" style="stroke-width: 0; stroke-dasharray: 1, 0;"/></marker><marker id="my-svg_flowchart-v2-pointStart-margin" class="marker flowchart-v2" viewBox="0 0 11.5 14" refX="1" refY="7" markerUnits="userSpaceOnUse" markerWidth="11.5" markerHeight="14" orient="auto"><polygon points="0,7 11.5,14 11.5,0" class="arrowMarkerPath" style="stroke-width: 0; stroke-dasharray: 1, 0;"/></marker><marker id="my-svg_flowchart-v2-circleEnd" class="marker flowchart-v2" viewBox="0 0 10 10" refX="11" refY="5" markerUnits="userSpaceOnUse" markerWidth="11" markerHeight="11" orient="auto"><circle cx="5" cy="5" r="5" class="arrowMarkerPath" style="stroke-width: 1; stroke-dasharray: 1, 0;"/></marker><marker id="my-svg_flowchart-v2-circleStart" class="marker flowchart-v2" viewBox="0 0 10 10" refX="-1" refY="5" markerUnits="userSpaceOnUse" markerWidth="11" markerHeight="11" orient="auto"><circle cx="5" cy="5" r="5" class="arrowMarkerPath" style="stroke-width: 1; stroke-dasharray: 1, 0;"/></marker><marker id="my-svg_flowchart-v2-circleEnd-margin" class="marker flowchart-v2" viewBox="0 0 10 10" refY="5" refX="12.25" markerUnits="userSpaceOnUse" markerWidth="14" markerHeight="14" orient="auto"><circle cx="5" cy="5" r="5" class="arrowMarkerPath" style="stroke-width: 0; stroke-dasharray: 1, 0;"/></marker><marker id="my-svg_flowchart-v2-circleStart-margin" class="marker flowchart-v2" viewBox="0 0 10 10" refX="-2" refY="5" markerUnits="userSpaceOnUse" markerWidth="14" markerHeight="14" orient="auto"><circle cx="5" cy="5" r="5" class="arrowMarkerPath" style="stroke-width: 0; stroke-dasharray: 1, 0;"/></marker><marker id="my-svg_flowchart-v2-crossEnd" class="marker cross flowchart-v2" viewBox="0 0 11 11" refX="12" refY="5.2" markerUnits="userSpaceOnUse" markerWidth="11" markerHeight="11" orient="auto"><path d="M 1,1 l 9,9 M 10,1 l -9,9" class="arrowMarkerPath" style="stroke-width: 2; stroke-dasharray: 1, 0;"/></marker><marker id="my-svg_flowchart-v2-crossStart" class="marker cross flowchart-v2" viewBox="0 0 11 11" refX="-1" refY="5.2" markerUnits="userSpaceOnUse" markerWidth="11" markerHeight="11" orient="auto"><path d="M 1,1 l 9,9 M 10,1 l -9,9" class="arrowMarkerPath" style="stroke-width: 2; stroke-dasharray: 1, 0;"/></marker><marker id="my-svg_flowchart-v2-crossEnd-margin" class="marker cross flowchart-v2" viewBox="0 0 15 15" refX="17.7" refY="7.5" markerUnits="userSpaceOnUse" markerWidth="12" markerHeight="12" orient="auto"><path d="M 1,1 L 14,14 M 1,14 L 14,1" class="arrowMarkerPath" style="stroke-width: 2.5;"/></marker><marker id="my-svg_flowchart-v2-crossStart-margin" class="marker cross flowchart-v2" viewBox="0 0 15 15" refX="-3.5" refY="7.5" markerUnits="userSpaceOnUse" markerWidth="12" markerHeight="12" orient="auto"><path d="M 1,1 L 14,14 M 1,14 L 14,1" class="arrowMarkerPath" style="stroke-width: 2.5; stroke-dasharray: 1, 0;"/></marker><g class="root"><g class="clusters"/><g class="edgePaths"><path d="M907.5,139L911.667,139C915.833,139,924.167,139,931.917,139.07C939.667,139.141,946.834,139.281,950.417,139.351L954.001,139.422" id="my-svg-L_out___output___0" class="edge-thickness-thick edge-pattern-solid edge-thickness-normal edge-pattern-solid flowchart-link" style=";" data-edge="true" data-et="edge" data-id="L_out___output___0" data-points="W3sieCI6OTA3LjUsInkiOjEzOX0seyJ4Ijo5MzIuNSwieSI6MTM5fSx7IngiOjk1OC4wMDAwMDAwMDAwMDAyLCJ5IjoxMzkuNX1d" data-look="classic" marker-end="url(#my-svg_flowchart-v2-pointEnd)"/><path d="M188.367,139L198.09,139C207.813,139,227.258,139,240.48,139C253.703,139,260.703,139,264.203,139L267.703,139" id="my-svg-L_water_f_coast_f_0" class="edge-thickness-normal edge-pattern-solid edge-thickness-normal edge-pattern-solid flowchart-link" style=";" data-edge="true" data-et="edge" data-id="L_water_f_coast_f_0" data-points="W3sieCI6MTg4LjM2NzE4NzUsInkiOjEzOX0seyJ4IjoyNDYuNzAzMTI1LCJ5IjoxMzl9LHsieCI6MjcxLjcwMzEyNSwieSI6MTM5fV0=" data-look="classic" marker-end="url(#my-svg_flowchart-v2-pointEnd)"/><path d="M441.234,255.576L449.651,255.576C458.068,255.576,474.901,255.576,486.818,255.576C498.734,255.576,505.734,255.576,509.234,255.576L512.734,255.576" id="my-svg-L_roads_f_roads_0" class="edge-thickness-normal edge-pattern-solid edge-thickness-normal edge-pattern-solid flowchart-link" style=";" data-edge="true" data-et="edge" data-id="L_roads_f_roads_0" data-points="W3sieCI6NDQxLjIzNDM3NSwieSI6MjU1LjU3NjM3NDA1Mzk1NTA4fSx7IngiOjQ5MS43MzQzNzUsInkiOjI1NS41NzYzNzQwNTM5NTUwOH0seyJ4Ijo1MTYuNzM0Mzc1LCJ5IjoyNTUuNTc2Mzc0MDUzOTU1MDh9XQ==" data-look="classic" marker-end="url(#my-svg_flowchart-v2-pointEnd)"/><path d="M466.734,139L470.901,139C475.068,139,483.401,139,491.139,139C498.878,139,506.021,139,509.592,139L513.164,139" id="my-svg-L_coast_f_coast_0" class="edge-thickness-normal edge-pattern-solid edge-thickness-normal edge-pattern-solid flowchart-link" style=";" data-edge="true" data-et="edge" data-id="L_coast_f_coast_0" data-points="W3sieCI6NDY2LjczNDM3NSwieSI6MTM5fSx7IngiOjQ5MS43MzQzNzUsInkiOjEzOX0seyJ4Ijo1MTcuMTY0MDYyNSwieSI6MTM5fV0=" data-look="classic" marker-end="url(#my-svg_flowchart-v2-pointEnd)"/><path d="M681.773,35L692.316,35C702.859,35,723.945,35,745.609,47.338C767.272,59.676,789.512,84.352,800.633,96.691L811.753,109.029" id="my-svg-L_bg_out_0" class="edge-thickness-normal edge-pattern-solid edge-thickness-normal edge-pattern-solid flowchart-link" style=";" data-edge="true" data-et="edge" data-id="L_bg_out_0" data-points="W3sieCI6NjgxLjc3MzQzNzUsInkiOjM1fSx7IngiOjc0NS4wMzEyNSwieSI6MzV9LHsieCI6ODE0LjQzMDczOTE4MjY5MjMsInkiOjExMn1d" data-look="classic" marker-end="url(#my-svg_flowchart-v2-pointEnd)"/><path d="M719.602,139L723.84,139C728.078,139,736.555,139,744.293,139C752.031,139,759.031,139,762.531,139L766.031,139" id="my-svg-L_coast_out_0" class="edge-thickness-normal edge-pattern-solid edge-thickness-normal edge-pattern-solid flowchart-link" style=";" data-edge="true" data-et="edge" data-id="L_coast_out_0" data-points="W3sieCI6NzE5LjYwMTU2MjUsInkiOjEzOX0seyJ4Ijo3NDUuMDMxMjUsInkiOjEzOX0seyJ4Ijo3NzAuMDMxMjUsInkiOjEzOX1d" data-look="classic" marker-end="url(#my-svg_flowchart-v2-pointEnd)"/><path d="M720.031,255.576L724.198,255.576C728.365,255.576,736.698,255.576,752.451,241.167C768.204,226.757,791.377,197.937,802.963,183.527L814.55,169.117" id="my-svg-L_roads_out_0" class="edge-thickness-normal edge-pattern-solid edge-thickness-normal edge-pattern-solid flowchart-link" style=";" data-edge="true" data-et="edge" data-id="L_roads_out_0" data-points="W3sieCI6NzIwLjAzMTI1LCJ5IjoyNTUuNTc2Mzc0MDUzOTU1MDh9LHsieCI6NzQ1LjAzMTI1LCJ5IjoyNTUuNTc2Mzc0MDUzOTU1MDh9LHsieCI6ODE3LjA1NjAxMDYzMzEyNDUsInkiOjE2Nn1d" data-look="classic" marker-end="url(#my-svg_flowchart-v2-pointEnd)"/></g><g class="edgeLabels"><g class="edgeLabel"><g class="label" data-id="L_out___output___0" transform="translate(0, 0)"><foreignObject width="0" height="0"><div xmlns="http://www.w3.org/1999/xhtml" class="labelBkg" style="display: table-cell; white-space: nowrap; line-height: 1.5; max-width: 200px; text-align: center;"><span class="edgeLabel"></span></div></foreignObject></g></g><g class="edgeLabel"><g class="label" data-id="L_water_f_coast_f_0" transform="translate(0, 0)"><foreignObject width="0" height="0"><div xmlns="http://www.w3.org/1999/xhtml" class="labelBkg" style="display: table-cell; white-space: nowrap; line-height: 1.5; max-width: 200px; text-align: center;"><span class="edgeLabel"></span></div></foreignObject></g></g><g class="edgeLabel"><g class="label" data-id="L_roads_f_roads_0" transform="translate(0, 0)"><foreignObject width="0" height="0"><div xmlns="http://www.w3.org/1999/xhtml" class="labelBkg" style="display: table-cell; white-space: nowrap; line-height: 1.5; max-width: 200px; text-align: center;"><span class="edgeLabel"></span></div></foreignObject></g></g><g class="edgeLabel"><g class="label" data-id="L_coast_f_coast_0" transform="translate(0, 0)"><foreignObject width="0" height="0"><div xmlns="http://www.w3.org/1999/xhtml" class="labelBkg" style="display: table-cell; white-space: nowrap; line-height: 1.5; max-width: 200px; text-align: center;"><span class="edgeLabel"></span></div></foreignObject></g></g><g class="edgeLabel"><g class="label" data-id="L_bg_out_0" transform="translate(0, 0)"><foreignObject width="0" height="0"><div xmlns="http://www.w3.org/1999/xhtml" class="labelBkg" style="display: table-cell; white-space: nowrap; line-height: 1.5; max-width: 200px; text-align: center;"><span class="edgeLabel"></span></div></foreignObject></g></g><g class="edgeLabel"><g class="label" data-id="L_coast_out_0" transform="translate(0, 0)"><foreignObject width="0" height="0"><div xmlns="http://www.w3.org/1999/xhtml" class="labelBkg" style="display: table-cell; white-space: nowrap; line-height: 1.5; max-width: 200px; text-align: center;"><span class="edgeLabel"></span></div></foreignObject></g></g><g class="edgeLabel"><g class="label" data-id="L_roads_out_0" transform="translate(0, 0)"><foreignObject width="0" height="0"><div xmlns="http://www.w3.org/1999/xhtml" class="labelBkg" style="display: table-cell; white-space: nowrap; line-height: 1.5; max-width: 200px; text-align: center;"><span class="edgeLabel"></span></div></foreignObject></g></g></g><g class="nodes"><g class="node default" id="my-svg-flowchart-basemap-0" data-look="classic" transform="translate(114.8515625, 29.731475830078125)"><polygon points="-19.5,0 174.703125,0 194.203125,-39 0,-39" class="label-container" transform="translate(-87.3515625,19.5)"/><g class="label" style="" transform="translate(-79.8515625, -12)"><rect/><foreignObject width="159.703125" height="24"><div xmlns="http://www.w3.org/1999/xhtml" style="display: table-cell; white-space: nowrap; line-height: 1.5; max-width: 200px; text-align: center;"><span class="nodeLabel"><p>basemap (source:mvt)</p></span></div></foreignObject></g></g><g class="node default" id="my-svg-flowchart-bg-1" data-look="classic" transform="translate(618.3828125, 35)"><rect class="basic label-container" style="" x="-63.390625" y="-27" width="126.78125" height="54"/><g class="label" style="" transform="translate(-33.390625, -12)"><rect/><foreignObject width="66.78125" height="24"><div xmlns="http://www.w3.org/1999/xhtml" style="display: table-cell; white-space: nowrap; line-height: 1.5; max-width: 200px; text-align: center;"><span class="nodeLabel"><p>bg (solid)</p></span></div></foreignObject></g></g><g class="node default source" id="my-svg-flowchart-roads_f-2" data-look="classic" transform="translate(369.21875, 255.57637405395508)"><path d="M0,13.384249041700546 a72.015625,13.384249041700546 0,0,0 144.03125,0 a72.015625,13.384249041700546 0,0,0 -144.03125,0 l0,52.38424904170054 a72.015625,13.384249041700546 0,0,0 144.03125,0 l0,-52.38424904170054" class="basic label-container outer-path" style="fill:#d9ecff !important;stroke:#2a6fb0 !important" transform="translate(-72.015625, -39.57637356255081)"/><g class="label" style="" transform="translate(-64.515625, -2)"><rect/><foreignObject width="129.03125" height="24"><div xmlns="http://www.w3.org/1999/xhtml" style="display: table-cell; white-space: nowrap; line-height: 1.5; max-width: 200px; text-align: center;"><span class="nodeLabel"><p>roads_f (features)</p></span></div></foreignObject></g></g><g class="node default source" id="my-svg-flowchart-water_f-3" data-look="classic" transform="translate(114.8515625, 139)"><path d="M0,13.512349224583573 a73.515625,13.512349224583573 0,0,0 147.03125,0 a73.515625,13.512349224583573 0,0,0 -147.03125,0 l0,52.51234922458357 a73.515625,13.512349224583573 0,0,0 147.03125,0 l0,-52.51234922458357" class="basic label-container outer-path" style="fill:#d9ecff !important;stroke:#2a6fb0 !important" transform="translate(-73.515625, -39.76852383687536)"/><g class="label" style="" transform="translate(-66.015625, -2)"><rect/><foreignObject width="132.03125" height="24"><div xmlns="http://www.w3.org/1999/xhtml" style="display: table-cell; white-space: nowrap; line-height: 1.5; max-width: 200px; text-align: center;"><span class="nodeLabel"><p>water_f (features)</p></span></div></foreignObject></g></g><g class="node default" id="my-svg-flowchart-coast_f-4" data-look="classic" transform="translate(369.21875, 139)"><rect class="basic label-container" style="" x="-97.515625" y="-27" width="195.03125" height="54"/><g class="label" style="" transform="translate(-67.515625, -12)"><rect/><foreignObject width="135.03125" height="24"><div xmlns="http://www.w3.org/1999/xhtml" style="display: table-cell; white-space: nowrap; line-height: 1.5; max-width: 200px; text-align: center;"><span class="nodeLabel"><p>coast_f (boundary)</p></span></div></foreignObject></g></g><g class="node default" id="my-svg-flowchart-roads-5" data-look="classic" transform="translate(618.3828125, 255.57637405395508)"><rect class="basic label-container" style="" x="-101.6484375" y="-27" width="203.296875" height="54"/><g class="label" style="" transform="translate(-71.6484375, -12)"><rect/><foreignObject width="143.296875" height="24"><div xmlns="http://www.w3.org/1999/xhtml" style="display: table-cell; white-space: nowrap; line-height: 1.5; max-width: 200px; text-align: center;"><span class="nodeLabel"><p>roads (func:wobbly)</p></span></div></foreignObject></g></g><g class="node default" id="my-svg-flowchart-coast-6" data-look="classic" transform="translate(618.3828125, 139)"><rect class="basic label-container" style="" x="-101.21875" y="-27" width="202.4375" height="54"/><g class="label" style="" transform="translate(-71.21875, -12)"><rect/><foreignObject width="142.4375" height="24"><div xmlns="http://www.w3.org/1999/xhtml" style="display: table-cell; white-space: nowrap; line-height: 1.5; max-width: 200px; text-align: center;"><span class="nodeLabel"><p>coast (func:wobbly)</p></span></div></foreignObject></g></g><g class="node default output" id="my-svg-flowchart-out-7" data-look="classic" transform="translate(838.765625, 139)"><rect class="basic label-container" style="fill:#ffe0e0 !important;stroke:#cc3333 !important;stroke-width:2px !important" x="-68.734375" y="-27" width="137.46875" height="54"/><g class="label" style="" transform="translate(-38.734375, -12)"><rect/><foreignObject width="77.46875" height="24"><div xmlns="http://www.w3.org/1999/xhtml" style="display: table-cell; white-space: nowrap; line-height: 1.5; max-width: 200px; text-align: center;"><span class="nodeLabel"><p>out (stack)</p></span></div></foreignObject></g></g><g class="node default sink" id="my-svg-flowchart-__output__-8" data-look="classic" transform="translate(999.3806076049805, 139)"><g class="basic label-container outer-path"><path d="M-22.390625 -19.5 C-4.637471540957023 -19.5, 13.115681918085954 -19.5, 22.390625 -19.5 C22.390625 -19.5, 22.390625 -19.5, 22.390625 -19.5 C22.767322522560946 -19.487920043648717, 23.144020045121888 -19.475840087297435, 23.6399942896239 -19.45993515863156 C23.91814578651512 -19.433102218252582, 24.196297283406334 -19.4062692778736, 24.884229652847864 -19.3399052695533 C25.3060245919465 -19.271712734868437, 25.727819531045135 -19.20352020018358, 26.11821825967676 -19.140403561325776 C26.462635320354394 -19.06179261475747, 26.80705238103203 -18.98318166818916, 27.33688938623539 -18.862249829261074 C27.652915706779197 -18.768454876179682, 27.968942027323003 -18.674659923098286, 28.535235251460602 -18.50658706670804 C28.90798173682383 -18.36941291446363, 29.280728222187058 -18.232238762219225, 29.708331595147794 -18.074876768247425 C30.151013443101096 -17.878914645848948, 30.593695291054395 -17.68295252345047, 30.85135791279238 -17.568892924097174 C31.101376116332396 -17.43845858745465, 31.351394319872412 -17.308024250812128, 31.959617264076783 -16.990714730406097 C32.33391769864735 -16.76381160733591, 32.70821813321791 -16.536908484265723, 33.0285555736057 -16.342718045390892 C33.409402629138455 -16.077055626054563, 33.7902496846712 -15.811393206718229, 34.05378034457871 -15.627565626425154 C34.26068586571971 -15.462563979302363, 34.467591386860704 -15.29756233217957, 35.031078708501866 -14.848196188198123 C35.33799034330665 -14.569467161905289, 35.64490197811144 -14.290738135612454, 35.95643473676799 -14.007812326905688 C36.14689105842629 -13.811150538038673, 36.3373473800846 -13.61448874917166, 36.82604594296865 -13.10986736009568 C37.0756784779376 -12.816634780027512, 37.32531101290656 -12.523402199959342, 37.63633890812658 -12.158051136245305 C37.819827732413884 -11.912192827876096, 38.003316556701186 -11.666334519506888, 38.383983964640635 -11.156274872382312 C38.64401956410282 -10.756790362272914, 38.904055163565005 -10.357305852163515, 39.06590887860425 -10.108655082055241 C39.276590965106436 -9.734567703595983, 39.487273051608625 -9.360480325136725, 39.679311474273504 -9.019496659696287 C39.821299503817194 -8.724655478291668, 39.963287533360884 -8.429814296887049, 40.22167114880834 -7.893275190886684 C40.37150473175767 -7.5231833441665925, 40.521338314706995 -7.153091497446501, 40.690759229970325 -6.734618561215508 C40.8405664927875 -6.28342295415609, 40.99037375560468 -5.832227347096672, 41.08464813421488 -5.548287939305138 C41.155190766780436 -5.279278307962336, 41.225733399345984 -5.010268676619535, 41.40171928754556 -4.339158212148133 C41.45719092480065 -4.054323078777926, 41.512662562055745 -3.769487945407718, 41.640669776581774 -3.1121979531509023 C41.696124156342016 -2.68210473443639, 41.75157853610225 -2.2520115157218776, 41.80051770250937 -1.872449005199798 C41.83052402076797 -1.4050763776579234, 41.860530339026575 -0.9377037501160486, 41.88060621591342 -0.6250057626472757 C41.88060621591342 -0.2017080895736309, 41.88060621591342 0.2215895835000139, 41.88060621591342 0.625005762647271 C41.86434699558154 0.878256243522678, 41.84808777524967 1.131506724398085, 41.80051770250937 1.8724490051997846 C41.7501122684508 2.2633835980792494, 41.69970683439223 2.654318190958714, 41.640669776581774 3.1121979531508885 C41.592248414684505 3.360831412634923, 41.54382705278723 3.6094648721189566, 41.40171928754556 4.339158212148129 C41.2950740088643 4.7458428801159585, 41.18842873018303 5.152527548083789, 41.08464813421489 5.548287939305125 C40.95044718894257 5.9524798044484575, 40.81624624367024 6.356671669591789, 40.690759229970325 6.734618561215495 C40.59285615867122 6.9764410401514025, 40.49495308737211 7.218263519087311, 40.22167114880834 7.893275190886679 C40.09903150951807 8.147939025940833, 39.97639187022781 8.402602860994985, 39.679311474273504 9.019496659696284 C39.520540725426166 9.301410201556406, 39.361769976578834 9.58332374341653, 39.06590887860425 10.108655082055236 C38.915491447260685 10.33973664933478, 38.76507401591712 10.570818216614322, 38.38398396464064 11.156274872382301 C38.226059101364314 11.367879801921564, 38.068134238087985 11.579484731460829, 37.63633890812658 12.158051136245302 C37.336666392870754 12.510063524513976, 37.036993877614925 12.86207591278265, 36.82604594296866 13.10986736009567 C36.64366069086261 13.298195107002847, 36.46127543875656 13.486522853910024, 35.95643473676799 14.007812326905684 C35.59865244886122 14.332740734382014, 35.24087016095446 14.657669141858342, 35.03107870850189 14.848196188198111 C34.71935317670115 15.096789004444412, 34.407627644900415 15.345381820690715, 34.05378034457871 15.627565626425152 C33.6978638679595 15.87583755313877, 33.34194739134028 16.124109479852386, 33.02855557360571 16.34271804539089 C32.72172021846399 16.52872344084249, 32.414884863322285 16.71472883629409, 31.959617264076787 16.990714730406093 C31.5861243164324 17.185565761958518, 31.212631368788013 17.380416793510946, 30.851357912792388 17.56889292409717 C30.55257814675442 17.70115386353532, 30.25379838071645 17.833414802973472, 29.708331595147804 18.07487676824742 C29.453735898351592 18.16857033812525, 29.19914020155538 18.262263908003078, 28.535235251460616 18.506587066708033 C28.24284590829124 18.59336668897772, 27.95045656512187 18.680146311247412, 27.336889386235413 18.86224982926107 C26.9421306013591 18.952350945867273, 26.54737181648279 19.042452062473476, 26.118218259676766 19.140403561325773 C25.79685881134245 19.192358464752722, 25.475499363008133 19.24431336817967, 24.88422965284788 19.3399052695533 C24.466750194014043 19.38017901085449, 24.049270735180208 19.420452752155683, 23.6399942896239 19.45993515863156 C23.308958281028882 19.4705508391047, 22.97792227243386 19.48116651957784, 22.390625000000004 19.5 C22.390625000000004 19.5, 22.390625 19.5, 22.390625 19.5 C9.062063926624795 19.5, -4.26649714675041 19.5, -22.390624999999996 19.5 C-22.807506557781537 19.486631419852674, -23.224388115563073 19.473262839705345, -23.639994289623893 19.45993515863156 C-24.094205800962214 19.416117920402016, -24.54841731230054 19.372300682172472, -24.88422965284787 19.3399052695533 C-25.198342031712464 19.28912201611635, -25.51245441057706 19.2383387626794, -26.11821825967676 19.140403561325773 C-26.532944066466204 19.045745102264892, -26.947669873255652 18.95108664320401, -27.336889386235388 18.862249829261074 C-27.66511804113559 18.76483328739406, -27.993346696035793 18.667416745527053, -28.53523525146059 18.506587066708043 C-28.774768850507364 18.418436488034516, -29.014302449554133 18.330285909360985, -29.708331595147797 18.074876768247425 C-30.05135166256022 17.923031959732715, -30.394371729972644 17.771187151218005, -30.85135791279238 17.568892924097174 C-31.26095391292258 17.355206953188006, -31.670549913052785 17.14152098227884, -31.95961726407678 16.990714730406097 C-32.202214486940875 16.843650868246353, -32.44481170980497 16.696587006086613, -33.028555573605686 16.3427180453909 C-33.432628497817625 16.06085426549562, -33.836701422029556 15.778990485600344, -34.05378034457871 15.627565626425156 C-34.33754859411818 15.401267998807688, -34.621316843657645 15.17497037119022, -35.031078708501866 14.848196188198125 C-35.22866332767549 14.66875506486719, -35.42624794684911 14.489313941536254, -35.956434736767974 14.007812326905697 C-36.135235800111616 13.82318554916308, -36.31403686345526 13.638558771420461, -36.826045942968655 13.109867360095677 C-37.108938508478154 12.77756565560523, -37.39183107398765 12.445263951114782, -37.636338908126575 12.158051136245307 C-37.87385810135893 11.839797055757604, -38.11137729459128 11.521542975269902, -38.383983964640635 11.156274872382316 C-38.5487347813457 10.90317337613462, -38.71348559805076 10.650071879886923, -39.06590887860425 10.108655082055249 C-39.261175246853014 9.761939872365689, -39.456441615101774 9.41522466267613, -39.679311474273504 9.019496659696289 C-39.79000395383932 8.789641357438233, -39.90069643340513 8.559786055180178, -40.22167114880834 7.893275190886686 C-40.33284811353448 7.618665938552735, -40.44402507826062 7.344056686218783, -40.690759229970325 6.73461856121551 C-40.77869095573624 6.469782213226485, -40.86662268150215 6.20494586523746, -41.08464813421488 5.5482879393051325 C-41.15325387227157 5.286664526180023, -41.22185961032826 5.025041113054914, -41.40171928754556 4.339158212148136 C-41.487442708276 3.8989865643487294, -41.57316612900643 3.4588149165493234, -41.640669776581774 3.112197953150904 C-41.68702097445942 2.752707215491157, -41.73337217233708 2.39321647783141, -41.80051770250937 1.872449005199809 C-41.82358994102867 1.5130802666858596, -41.846662179547984 1.1537115281719101, -41.88060621591342 0.6250057626472781 C-41.88060621591342 0.14632372158695112, -41.88060621591342 -0.3323583194733759, -41.88060621591342 -0.6250057626472687 C-41.86243041867146 -0.9081084759302175, -41.8442546214295 -1.1912111892131663, -41.80051770250937 -1.8724490051997822 C-41.75435441815925 -2.230482322647691, -41.70819113380914 -2.5885156400956, -41.640669776581774 -3.112197953150895 C-41.570254596646286 -3.473765019866081, -41.4998394167108 -3.835332086581267, -41.40171928754556 -4.339158212148126 C-41.30901867768069 -4.692665814261339, -41.21631806781582 -5.046173416374551, -41.08464813421489 -5.548287939305123 C-40.957441263758554 -5.931414765457183, -40.83023439330223 -6.3145415916092436, -40.69075922997033 -6.734618561215485 C-40.522224362148386 -7.150902943135694, -40.35368949432644 -7.5671873250559045, -40.22167114880834 -7.893275190886676 C-40.051214647669525 -8.247231762686283, -39.88075814653072 -8.601188334485888, -39.679311474273504 -9.019496659696282 C-39.51491445312616 -9.311400217746925, -39.350517431978815 -9.603303775797569, -39.06590887860425 -10.108655082055243 C-38.83696297248414 -10.460377474439616, -38.608017066364035 -10.812099866823988, -38.38398396464064 -11.156274872382308 C-38.121415291144515 -11.508092974368871, -37.85884661764839 -11.859911076355433, -37.63633890812659 -12.158051136245302 C-37.386629191748966 -12.45137437798784, -37.13691947537134 -12.74469761973038, -36.82604594296866 -13.10986736009567 C-36.553806622139014 -13.390976810116197, -36.281567301309366 -13.672086260136725, -35.956434736767996 -14.007812326905677 C-35.76218449112015 -14.18422526042319, -35.56793424547231 -14.360638193940703, -35.03107870850189 -14.848196188198107 C-34.67490378685021 -15.132236210002599, -34.31872886519853 -15.416276231807089, -34.05378034457872 -15.627565626425149 C-33.68392607670052 -15.885559952963773, -33.31407180882232 -16.143554279502396, -33.028555573605715 -16.342718045390885 C-32.69449565150564 -16.54522713332196, -32.360435729405566 -16.74773622125303, -31.95961726407679 -16.99071473040609 C-31.653689250662026 -17.15031717904833, -31.347761237247262 -17.309919627690565, -30.851357912792388 -17.56889292409717 C-30.51289650594778 -17.718719748806368, -30.17443509910317 -17.86854657351557, -29.708331595147804 -18.07487676824742 C-29.345455027248587 -18.208418699628556, -28.98257845934937 -18.34196063100969, -28.53523525146062 -18.506587066708033 C-28.192099600715032 -18.608427926693537, -27.848963949969445 -18.71026878667904, -27.336889386235413 -18.862249829261067 C-26.977867687639673 -18.944194189130013, -26.618845989043933 -19.026138548998958, -26.118218259676766 -19.140403561325773 C-25.788446324150787 -19.19371853044206, -25.458674388624804 -19.247033499558345, -24.884229652847882 -19.3399052695533 C-24.56275535859921 -19.370917508090063, -24.241281064350538 -19.401929746626827, -23.639994289623903 -19.45993515863156 C-23.22573890037072 -19.47321952266571, -22.81148351111754 -19.486503886699857, -22.390625000000007 -19.5 C-22.390625000000004 -19.5, -22.390625 -19.5, -22.390625 -19.5" stroke="none" stroke-width="0" fill="#cc3333" style="fill:#cc3333 !important;stroke:#7a1f1f !important;stroke-width:2px !important"/><path d="M-22.390625 -19.5 C-5.8491947916015725 -19.5, 10.692235416796855 -19.5, 22.390625 -19.5 M-22.390625 -19.5 C-7.554947048134579 -19.5, 7.280730903730841 -19.5, 22.390625 -19.5 M22.390625 -19.5 C22.390625 -19.5, 22.390625 -19.5, 22.390625 -19.5 M22.390625 -19.5 C22.390625 -19.5, 22.390625 -19.5, 22.390625 -19.5 M22.390625 -19.5 C22.74833814492383 -19.48852883568869, 23.106051289847663 -19.47705767137738, 23.6399942896239 -19.45993515863156 M22.390625 -19.5 C22.665337175127 -19.49119051523849, 22.940049350254004 -19.482381030476976, 23.6399942896239 -19.45993515863156 M23.6399942896239 -19.45993515863156 C23.945329576087296 -19.430479830765844, 24.25066486255069 -19.40102450290013, 24.884229652847864 -19.3399052695533 M23.6399942896239 -19.45993515863156 C23.90434087176382 -19.4344339617758, 24.168687453903743 -19.40893276492004, 24.884229652847864 -19.3399052695533 M24.884229652847864 -19.3399052695533 C25.269556941083057 -19.277608541849183, 25.65488422931825 -19.215311814145068, 26.11821825967676 -19.140403561325776 M24.884229652847864 -19.3399052695533 C25.135546530100928 -19.299274305830515, 25.386863407353996 -19.25864334210773, 26.11821825967676 -19.140403561325776 M26.11821825967676 -19.140403561325776 C26.520563614498332 -19.048570859636563, 26.922908969319906 -18.95673815794735, 27.33688938623539 -18.862249829261074 M26.11821825967676 -19.140403561325776 C26.49720587670874 -19.053902110863554, 26.87619349374072 -18.96740066040133, 27.33688938623539 -18.862249829261074 M27.33688938623539 -18.862249829261074 C27.61411307169522 -18.779971294593416, 27.891336757155045 -18.69769275992576, 28.535235251460602 -18.50658706670804 M27.33688938623539 -18.862249829261074 C27.691823114476488 -18.756907361804274, 28.04675684271759 -18.651564894347477, 28.535235251460602 -18.50658706670804 M28.535235251460602 -18.50658706670804 C28.77437884481922 -18.418580013732925, 29.013522438177844 -18.330572960757806, 29.708331595147794 -18.074876768247425 M28.535235251460602 -18.50658706670804 C28.920636210955312 -18.36475595100657, 29.306037170450026 -18.2229248353051, 29.708331595147794 -18.074876768247425 M29.708331595147794 -18.074876768247425 C30.01456991743641 -17.93931414720732, 30.32080823972503 -17.80375152616722, 30.85135791279238 -17.568892924097174 M29.708331595147794 -18.074876768247425 C30.081583998642092 -17.909649001359654, 30.45483640213639 -17.744421234471886, 30.85135791279238 -17.568892924097174 M30.85135791279238 -17.568892924097174 C31.16671089685345 -17.404373474305743, 31.482063880914513 -17.23985402451431, 31.959617264076783 -16.990714730406097 M30.85135791279238 -17.568892924097174 C31.225536733574472 -17.373684072968132, 31.599715554356564 -17.178475221839086, 31.959617264076783 -16.990714730406097 M31.959617264076783 -16.990714730406097 C32.27643530708042 -16.798657770907813, 32.593253350084055 -16.606600811409525, 33.0285555736057 -16.342718045390892 M31.959617264076783 -16.990714730406097 C32.325474949906116 -16.768929651237947, 32.69133263573544 -16.547144572069794, 33.0285555736057 -16.342718045390892 M33.0285555736057 -16.342718045390892 C33.273510882913456 -16.17184782556224, 33.51846619222121 -16.00097760573358, 34.05378034457871 -15.627565626425154 M33.0285555736057 -16.342718045390892 C33.42574969725418 -16.065652618990203, 33.82294382090266 -15.788587192589512, 34.05378034457871 -15.627565626425154 M34.05378034457871 -15.627565626425154 C34.38942764072051 -15.359895839701736, 34.72507493686231 -15.092226052978317, 35.031078708501866 -14.848196188198123 M34.05378034457871 -15.627565626425154 C34.295435543567436 -15.434852035946564, 34.53709074255616 -15.242138445467976, 35.031078708501866 -14.848196188198123 M35.031078708501866 -14.848196188198123 C35.32225009770548 -14.583762036496198, 35.61342148690909 -14.319327884794273, 35.95643473676799 -14.007812326905688 M35.031078708501866 -14.848196188198123 C35.39129838723047 -14.521054206867232, 35.75151806595907 -14.19391222553634, 35.95643473676799 -14.007812326905688 M35.95643473676799 -14.007812326905688 C36.150579754478265 -13.807341656517439, 36.344724772188535 -13.606870986129188, 36.82604594296865 -13.10986736009568 M35.95643473676799 -14.007812326905688 C36.27968458162201 -13.674030322788088, 36.60293442647602 -13.34024831867049, 36.82604594296865 -13.10986736009568 M36.82604594296865 -13.10986736009568 C36.99465245730658 -12.911812554371895, 37.16325897164451 -12.71375774864811, 37.63633890812658 -12.158051136245305 M36.82604594296865 -13.10986736009568 C36.99611284408276 -12.910097100966237, 37.166179745196864 -12.710326841836793, 37.63633890812658 -12.158051136245305 M37.63633890812658 -12.158051136245305 C37.81113437311668 -11.923841137353028, 37.98592983810677 -11.68963113846075, 38.383983964640635 -11.156274872382312 M37.63633890812658 -12.158051136245305 C37.79152407451788 -11.950117150940466, 37.94670924090917 -11.742183165635627, 38.383983964640635 -11.156274872382312 M38.383983964640635 -11.156274872382312 C38.54501399534304 -10.908889502605641, 38.70604402604544 -10.66150413282897, 39.06590887860425 -10.108655082055241 M38.383983964640635 -11.156274872382312 C38.55636566083445 -10.891450296061839, 38.72874735702826 -10.626625719741366, 39.06590887860425 -10.108655082055241 M39.06590887860425 -10.108655082055241 C39.24949515967863 -9.782679049880874, 39.433081440753014 -9.456703017706507, 39.679311474273504 -9.019496659696287 M39.06590887860425 -10.108655082055241 C39.236314079983146 -9.80608339160926, 39.406719281362044 -9.50351170116328, 39.679311474273504 -9.019496659696287 M39.679311474273504 -9.019496659696287 C39.810279033599784 -8.74753972049841, 39.94124659292606 -8.475582781300533, 40.22167114880834 -7.893275190886684 M39.679311474273504 -9.019496659696287 C39.84487036751512 -8.675710075487235, 40.01042926075674 -8.331923491278184, 40.22167114880834 -7.893275190886684 M40.22167114880834 -7.893275190886684 C40.35513686403423 -7.563612293894676, 40.48860257926012 -7.233949396902667, 40.690759229970325 -6.734618561215508 M40.22167114880834 -7.893275190886684 C40.40809838054591 -7.432796324169575, 40.59452561228347 -6.972317457452467, 40.690759229970325 -6.734618561215508 M40.690759229970325 -6.734618561215508 C40.82425639813535 -6.332546360587693, 40.957753566300376 -5.930474159959878, 41.08464813421488 -5.548287939305138 M40.690759229970325 -6.734618561215508 C40.84171405795424 -6.279966670713556, 40.99266888593815 -5.825314780211603, 41.08464813421488 -5.548287939305138 M41.08464813421488 -5.548287939305138 C41.18997695292256 -5.146623503773972, 41.29530577163023 -4.744959068242806, 41.40171928754556 -4.339158212148133 M41.08464813421488 -5.548287939305138 C41.15574828925492 -5.277152233135338, 41.226848444294966 -5.006016526965538, 41.40171928754556 -4.339158212148133 M41.40171928754556 -4.339158212148133 C41.463754919924355 -4.020618351118557, 41.52579055230315 -3.702078490088982, 41.640669776581774 -3.1121979531509023 M41.40171928754556 -4.339158212148133 C41.490506089483716 -3.8832567492929417, 41.579292891421865 -3.427355286437751, 41.640669776581774 -3.1121979531509023 M41.640669776581774 -3.1121979531509023 C41.68939726493022 -2.734277175851304, 41.73812475327866 -2.3563563985517053, 41.80051770250937 -1.872449005199798 M41.640669776581774 -3.1121979531509023 C41.687386073786776 -2.7498755772052417, 41.73410237099178 -2.387553201259581, 41.80051770250937 -1.872449005199798 M41.80051770250937 -1.872449005199798 C41.82753860543246 -1.451576631292377, 41.85455950835555 -1.030704257384956, 41.88060621591342 -0.6250057626472757 M41.80051770250937 -1.872449005199798 C41.82457357624658 -1.4977593541909568, 41.84862944998379 -1.1230697031821157, 41.88060621591342 -0.6250057626472757 M41.88060621591342 -0.6250057626472757 C41.88060621591342 -0.18768243935908874, 41.88060621591342 0.24964088392909822, 41.88060621591342 0.625005762647271 M41.88060621591342 -0.6250057626472757 C41.88060621591342 -0.18147422263650131, 41.88060621591342 0.26205731737427307, 41.88060621591342 0.625005762647271 M41.88060621591342 0.625005762647271 C41.85169223912255 1.0753642901070057, 41.82277826233168 1.5257228175667403, 41.80051770250937 1.8724490051997846 M41.88060621591342 0.625005762647271 C41.85144342054845 1.0792398402413437, 41.82228062518348 1.5334739178354162, 41.80051770250937 1.8724490051997846 M41.80051770250937 1.8724490051997846 C41.76643857751405 2.1367599689790167, 41.73235945251874 2.401070932758249, 41.640669776581774 3.1121979531508885 M41.80051770250937 1.8724490051997846 C41.74434414142862 2.308120052217724, 41.68817058034788 2.743791099235663, 41.640669776581774 3.1121979531508885 M41.640669776581774 3.1121979531508885 C41.576468725551734 3.4418567812932093, 41.512267674521695 3.7715156094355295, 41.40171928754556 4.339158212148129 M41.640669776581774 3.1121979531508885 C41.55623719821373 3.545741398239033, 41.47180461984569 3.9792848433271777, 41.40171928754556 4.339158212148129 M41.40171928754556 4.339158212148129 C41.33090263803692 4.609212788854644, 41.26008598852827 4.87926736556116, 41.08464813421489 5.548287939305125 M41.40171928754556 4.339158212148129 C41.30075041846512 4.724196270136515, 41.19978154938469 5.109234328124901, 41.08464813421489 5.548287939305125 M41.08464813421489 5.548287939305125 C40.98448036096068 5.849977312779464, 40.88431258770648 6.151666686253803, 40.690759229970325 6.734618561215495 M41.08464813421489 5.548287939305125 C40.958425117306085 5.928451555327796, 40.83220210039729 6.308615171350466, 40.690759229970325 6.734618561215495 M40.690759229970325 6.734618561215495 C40.59254097446698 6.977219551229543, 40.49432271896364 7.219820541243592, 40.22167114880834 7.893275190886679 M40.690759229970325 6.734618561215495 C40.55979680767031 7.058098276282717, 40.428834385370294 7.381577991349939, 40.22167114880834 7.893275190886679 M40.22167114880834 7.893275190886679 C40.09599338111656 8.154247764572114, 39.97031561342478 8.415220338257548, 39.679311474273504 9.019496659696284 M40.22167114880834 7.893275190886679 C40.06136140376089 8.226161806556767, 39.90105165871344 8.559048422226857, 39.679311474273504 9.019496659696284 M39.679311474273504 9.019496659696284 C39.445207717044255 9.43517158623278, 39.211103959815 9.850846512769278, 39.06590887860425 10.108655082055236 M39.679311474273504 9.019496659696284 C39.54302586735843 9.261485555188155, 39.406740260443364 9.503474450680027, 39.06590887860425 10.108655082055236 M39.06590887860425 10.108655082055236 C38.798918503660765 10.518823994922613, 38.53192812871729 10.928992907789992, 38.38398396464064 11.156274872382301 M39.06590887860425 10.108655082055236 C38.89376669735941 10.373111699095316, 38.72162451611457 10.637568316135397, 38.38398396464064 11.156274872382301 M38.38398396464064 11.156274872382301 C38.18933572891608 11.41708577543414, 37.99468749319152 11.67789667848598, 37.63633890812658 12.158051136245302 M38.38398396464064 11.156274872382301 C38.119492766356515 11.510668982439178, 37.85500156807238 11.865063092496055, 37.63633890812658 12.158051136245302 M37.63633890812658 12.158051136245302 C37.31796437283922 12.532031981418104, 36.99958983755185 12.906012826590905, 36.82604594296866 13.10986736009567 M37.63633890812658 12.158051136245302 C37.41410720134208 12.419097144376721, 37.19187549455758 12.680143152508142, 36.82604594296866 13.10986736009567 M36.82604594296866 13.10986736009567 C36.62380986354607 13.318692715990405, 36.42157378412348 13.527518071885138, 35.95643473676799 14.007812326905684 M36.82604594296866 13.10986736009567 C36.51704789978614 13.428933208892772, 36.208049856603616 13.747999057689874, 35.95643473676799 14.007812326905684 M35.95643473676799 14.007812326905684 C35.718890653971926 14.22354357782905, 35.48134657117586 14.439274828752417, 35.03107870850189 14.848196188198111 M35.95643473676799 14.007812326905684 C35.71155018400668 14.23020999843329, 35.46666563124538 14.452607669960896, 35.03107870850189 14.848196188198111 M35.03107870850189 14.848196188198111 C34.716523728583674 15.099045414023324, 34.40196874866546 15.349894639848536, 34.05378034457871 15.627565626425152 M35.03107870850189 14.848196188198111 C34.69646982804581 15.115037866045569, 34.361860947589726 15.381879543893028, 34.05378034457871 15.627565626425152 M34.05378034457871 15.627565626425152 C33.75291771267965 15.837434374304518, 33.45205508078058 16.047303122183884, 33.02855557360571 16.34271804539089 M34.05378034457871 15.627565626425152 C33.80649048681569 15.800064326195232, 33.55920062905266 15.972563025965309, 33.02855557360571 16.34271804539089 M33.02855557360571 16.34271804539089 C32.674679522405846 16.557239787234753, 32.320803471205984 16.77176152907862, 31.959617264076787 16.990714730406093 M33.02855557360571 16.34271804539089 C32.62535566510634 16.587140199388873, 32.22215575660697 16.831562353386857, 31.959617264076787 16.990714730406093 M31.959617264076787 16.990714730406093 C31.73018809203684 17.110407782502936, 31.500758919996894 17.230100834599774, 30.851357912792388 17.56889292409717 M31.959617264076787 16.990714730406093 C31.525615007790083 17.217133429519155, 31.09161275150338 17.443552128632216, 30.851357912792388 17.56889292409717 M30.851357912792388 17.56889292409717 C30.4338523478104 17.753710252852144, 30.016346782828414 17.938527581607122, 29.708331595147804 18.07487676824742 M30.851357912792388 17.56889292409717 C30.6106848203366 17.67543176281372, 30.370011727880815 17.78197060153027, 29.708331595147804 18.07487676824742 M29.708331595147804 18.07487676824742 C29.462160822231734 18.165469888258215, 29.21599004931566 18.25606300826901, 28.535235251460616 18.506587066708033 M29.708331595147804 18.07487676824742 C29.269808402469533 18.23625735681698, 28.831285209791258 18.397637945386542, 28.535235251460616 18.506587066708033 M28.535235251460616 18.506587066708033 C28.21501910010575 18.60162553958128, 27.89480294875088 18.69666401245453, 27.336889386235413 18.86224982926107 M28.535235251460616 18.506587066708033 C28.118996607898435 18.630124511236065, 27.702757964336257 18.753661955764095, 27.336889386235413 18.86224982926107 M27.336889386235413 18.86224982926107 C26.92719513940444 18.955759867595425, 26.517500892573466 19.049269905929783, 26.118218259676766 19.140403561325773 M27.336889386235413 18.86224982926107 C26.961787481847097 18.94786439116902, 26.58668557745878 19.033478953076973, 26.118218259676766 19.140403561325773 M26.118218259676766 19.140403561325773 C25.640233068016244 19.217680500282924, 25.162247876355725 19.294957439240076, 24.88422965284788 19.3399052695533 M26.118218259676766 19.140403561325773 C25.686464500567983 19.210206160798073, 25.2547107414592 19.280008760270373, 24.88422965284788 19.3399052695533 M24.88422965284788 19.3399052695533 C24.497103474843538 19.37725086635803, 24.1099772968392 19.414596463162763, 23.6399942896239 19.45993515863156 M24.88422965284788 19.3399052695533 C24.3905492464023 19.387530024625548, 23.896868839956728 19.435154779697797, 23.6399942896239 19.45993515863156 M23.6399942896239 19.45993515863156 C23.19850757762613 19.47409277818357, 22.75702086562836 19.488250397735587, 22.390625000000004 19.5 M23.6399942896239 19.45993515863156 C23.163207889798123 19.475224770465545, 22.686421489972346 19.490514382299526, 22.390625000000004 19.5 M22.390625000000004 19.5 C22.390625000000004 19.5, 22.390625 19.5, 22.390625 19.5 M22.390625000000004 19.5 C22.390625000000004 19.5, 22.390625000000004 19.5, 22.390625 19.5 M22.390625 19.5 C11.397224488818834 19.5, 0.40382397763766775 19.5, -22.390624999999996 19.5 M22.390625 19.5 C12.487390910441414 19.5, 2.5841568208828285 19.5, -22.390624999999996 19.5 M-22.390624999999996 19.5 C-22.85876754095198 19.484987579895847, -23.326910081903964 19.469975159791694, -23.639994289623893 19.45993515863156 M-22.390624999999996 19.5 C-22.819332439570534 19.486252186841384, -23.24803987914107 19.472504373682764, -23.639994289623893 19.45993515863156 M-23.639994289623893 19.45993515863156 C-24.13515179785643 19.412167909326396, -24.630309306088968 19.364400660021236, -24.88422965284787 19.3399052695533 M-23.639994289623893 19.45993515863156 C-23.958538234195473 19.429205607403883, -24.277082178767053 19.398476056176207, -24.88422965284787 19.3399052695533 M-24.88422965284787 19.3399052695533 C-25.258069316849834 19.279465771847356, -25.6319089808518 19.21902627414141, -26.11821825967676 19.140403561325773 M-24.88422965284787 19.3399052695533 C-25.35574738997092 19.26367393848991, -25.827265127093966 19.187442607426515, -26.11821825967676 19.140403561325773 M-26.11821825967676 19.140403561325773 C-26.425504587141546 19.07026746231262, -26.732790914606333 19.000131363299467, -27.336889386235388 18.862249829261074 M-26.11821825967676 19.140403561325773 C-26.605231675008994 19.02924592733573, -27.09224509034123 18.91808829334569, -27.336889386235388 18.862249829261074 M-27.336889386235388 18.862249829261074 C-27.672976349556603 18.76250098270381, -28.009063312877817 18.662752136146544, -28.53523525146059 18.506587066708043 M-27.336889386235388 18.862249829261074 C-27.669069451361548 18.763660529580374, -28.001249516487707 18.665071229899674, -28.53523525146059 18.506587066708043 M-28.53523525146059 18.506587066708043 C-28.800767003219278 18.40886892751224, -29.066298754977964 18.31115078831644, -29.708331595147797 18.074876768247425 M-28.53523525146059 18.506587066708043 C-28.78567233260976 18.414423905830148, -29.03610941375893 18.322260744952253, -29.708331595147797 18.074876768247425 M-29.708331595147797 18.074876768247425 C-30.132922991534123 17.886922752123468, -30.55751438792045 17.69896873599951, -30.85135791279238 17.568892924097174 M-29.708331595147797 18.074876768247425 C-29.956904017551114 17.964841130488402, -30.205476439954428 17.85480549272938, -30.85135791279238 17.568892924097174 M-30.85135791279238 17.568892924097174 C-31.292217275105042 17.338896877162558, -31.733076637417703 17.10890083022794, -31.95961726407678 16.990714730406097 M-30.85135791279238 17.568892924097174 C-31.16062070998191 17.407550720895674, -31.46988350717144 17.24620851769417, -31.95961726407678 16.990714730406097 M-31.95961726407678 16.990714730406097 C-32.326479795753635 16.768320507780047, -32.69334232743049 16.545926285153996, -33.028555573605686 16.3427180453909 M-31.95961726407678 16.990714730406097 C-32.37114387279509 16.741244881802267, -32.7826704815134 16.491775033198433, -33.028555573605686 16.3427180453909 M-33.028555573605686 16.3427180453909 C-33.32757029965043 16.134138316640954, -33.62658502569518 15.925558587891008, -34.05378034457871 15.627565626425156 M-33.028555573605686 16.3427180453909 C-33.34322221988574 16.123220214645514, -33.657888866165784 15.903722383900124, -34.05378034457871 15.627565626425156 M-34.05378034457871 15.627565626425156 C-34.335134413295286 15.403193243769893, -34.61648848201187 15.178820861114632, -35.031078708501866 14.848196188198125 M-34.05378034457871 15.627565626425156 C-34.30172428102212 15.429836935176791, -34.549668217465516 15.232108243928426, -35.031078708501866 14.848196188198125 M-35.031078708501866 14.848196188198125 C-35.36334908836847 14.546437020595771, -35.69561946823508 14.244677852993417, -35.956434736767974 14.007812326905697 M-35.031078708501866 14.848196188198125 C-35.25488672851085 14.644939666061685, -35.47869474851983 14.441683143925243, -35.956434736767974 14.007812326905697 M-35.956434736767974 14.007812326905697 C-36.21983235729497 13.735832658364757, -36.483229977821956 13.463852989823817, -36.826045942968655 13.109867360095677 M-35.956434736767974 14.007812326905697 C-36.16103878201956 13.796541851878915, -36.365642827271145 13.585271376852134, -36.826045942968655 13.109867360095677 M-36.826045942968655 13.109867360095677 C-37.11586874711252 12.769425002963551, -37.40569155125639 12.428982645831423, -37.636338908126575 12.158051136245307 M-36.826045942968655 13.109867360095677 C-37.02974765525139 12.870587737892587, -37.23344936753413 12.631308115689496, -37.636338908126575 12.158051136245307 M-37.636338908126575 12.158051136245307 C-37.93430643232148 11.758801799224024, -38.23227395651639 11.359552462202739, -38.383983964640635 11.156274872382316 M-37.636338908126575 12.158051136245307 C-37.89198322238483 11.815511044815393, -38.14762753664308 11.472970953385481, -38.383983964640635 11.156274872382316 M-38.383983964640635 11.156274872382316 C-38.536772334892696 10.921550906253081, -38.68956070514475 10.686826940123847, -39.06590887860425 10.108655082055249 M-38.383983964640635 11.156274872382316 C-38.64195046622117 10.759969052249712, -38.8999169678017 10.363663232117108, -39.06590887860425 10.108655082055249 M-39.06590887860425 10.108655082055249 C-39.24062626320374 9.798426673645206, -39.415343647803226 9.488198265235162, -39.679311474273504 9.019496659696289 M-39.06590887860425 10.108655082055249 C-39.30339450675165 9.68697530125201, -39.54088013489905 9.265295520448772, -39.679311474273504 9.019496659696289 M-39.679311474273504 9.019496659696289 C-39.832330179056754 8.70175004513808, -39.985348883840004 8.384003430579874, -40.22167114880834 7.893275190886686 M-39.679311474273504 9.019496659696289 C-39.79383577265202 8.781684503685868, -39.90836007103053 8.543872347675448, -40.22167114880834 7.893275190886686 M-40.22167114880834 7.893275190886686 C-40.37417139175079 7.516596642427213, -40.526671634693244 7.139918093967739, -40.690759229970325 6.73461856121551 M-40.22167114880834 7.893275190886686 C-40.33484622747526 7.613730558488101, -40.44802130614218 7.334185926089517, -40.690759229970325 6.73461856121551 M-40.690759229970325 6.73461856121551 C-40.794559443951336 6.421988855022848, -40.89835965793235 6.109359148830186, -41.08464813421488 5.5482879393051325 M-40.690759229970325 6.73461856121551 C-40.79293335287132 6.426886382273429, -40.89510747577232 6.119154203331347, -41.08464813421488 5.5482879393051325 M-41.08464813421488 5.5482879393051325 C-41.1573893873737 5.270894014752021, -41.230130640532515 4.99350009019891, -41.40171928754556 4.339158212148136 M-41.08464813421488 5.5482879393051325 C-41.14935703725295 5.301524847005001, -41.214065940291015 5.054761754704868, -41.40171928754556 4.339158212148136 M-41.40171928754556 4.339158212148136 C-41.491054623032575 3.880440145452145, -41.58038995851959 3.421722078756155, -41.640669776581774 3.112197953150904 M-41.40171928754556 4.339158212148136 C-41.49198393324656 3.8756683339131306, -41.582248578947556 3.4121784556781254, -41.640669776581774 3.112197953150904 M-41.640669776581774 3.112197953150904 C-41.68826707583695 2.7430426992776464, -41.73586437509212 2.373887445404389, -41.80051770250937 1.872449005199809 M-41.640669776581774 3.112197953150904 C-41.67350521776671 2.8575327554118086, -41.706340658951646 2.602867557672713, -41.80051770250937 1.872449005199809 M-41.80051770250937 1.872449005199809 C-41.81965563182472 1.5743603082546296, -41.83879356114008 1.27627161130945, -41.88060621591342 0.6250057626472781 M-41.80051770250937 1.872449005199809 C-41.82381178419573 1.5096248802903058, -41.84710586588211 1.1468007553808026, -41.88060621591342 0.6250057626472781 M-41.88060621591342 0.6250057626472781 C-41.88060621591342 0.20633930603316925, -41.88060621591342 -0.21232715058093965, -41.88060621591342 -0.6250057626472687 M-41.88060621591342 0.6250057626472781 C-41.88060621591342 0.27181472821815295, -41.88060621591342 -0.08137630621097225, -41.88060621591342 -0.6250057626472687 M-41.88060621591342 -0.6250057626472687 C-41.86427196656822 -0.8794248809675447, -41.84793771722301 -1.1338439992878206, -41.80051770250937 -1.8724490051997822 M-41.88060621591342 -0.6250057626472687 C-41.85902627507173 -0.9611307602713106, -41.83744633423004 -1.2972557578953525, -41.80051770250937 -1.8724490051997822 M-41.80051770250937 -1.8724490051997822 C-41.7620855321491 -2.1705213292235657, -41.723653361788834 -2.4685936532473494, -41.640669776581774 -3.112197953150895 M-41.80051770250937 -1.8724490051997822 C-41.750775715080884 -2.2582380370286455, -41.7010337276524 -2.644027068857509, -41.640669776581774 -3.112197953150895 M-41.640669776581774 -3.112197953150895 C-41.562753324230606 -3.512282468326096, -41.484836871879445 -3.9123669835012964, -41.40171928754556 -4.339158212148126 M-41.640669776581774 -3.112197953150895 C-41.54851955428696 -3.5853698686783684, -41.45636933199216 -4.0585417842058416, -41.40171928754556 -4.339158212148126 M-41.40171928754556 -4.339158212148126 C-41.29061799436926 -4.762835594634396, -41.17951670119297 -5.186512977120666, -41.08464813421489 -5.548287939305123 M-41.40171928754556 -4.339158212148126 C-41.326775763819214 -4.624950348845349, -41.25183224009286 -4.910742485542573, -41.08464813421489 -5.548287939305123 M-41.08464813421489 -5.548287939305123 C-40.93520613843603 -5.998383420242524, -40.78576414265717 -6.448478901179925, -40.69075922997033 -6.734618561215485 M-41.08464813421489 -5.548287939305123 C-40.99044980699247 -5.831998292433791, -40.89625147977005 -6.11570864556246, -40.69075922997033 -6.734618561215485 M-40.69075922997033 -6.734618561215485 C-40.54279134817972 -7.100102090002669, -40.39482346638911 -7.465585618789853, -40.22167114880834 -7.893275190886676 M-40.69075922997033 -6.734618561215485 C-40.54796895280043 -7.087313306487342, -40.40517867563053 -7.4400080517592, -40.22167114880834 -7.893275190886676 M-40.22167114880834 -7.893275190886676 C-40.06886562415019 -8.210579132353784, -39.91606009949204 -8.527883073820894, -39.679311474273504 -9.019496659696282 M-40.22167114880834 -7.893275190886676 C-40.10375911037618 -8.138122061604511, -39.98584707194403 -8.382968932322347, -39.679311474273504 -9.019496659696282 M-39.679311474273504 -9.019496659696282 C-39.43876278605554 -9.446615213823273, -39.19821409783757 -9.873733767950267, -39.06590887860425 -10.108655082055243 M-39.679311474273504 -9.019496659696282 C-39.44640471923271 -9.433046187637567, -39.21349796419191 -9.84659571557885, -39.06590887860425 -10.108655082055243 M-39.06590887860425 -10.108655082055243 C-38.9137969459726 -10.342339858350591, -38.76168501334095 -10.576024634645941, -38.38398396464064 -11.156274872382308 M-39.06590887860425 -10.108655082055243 C-38.88097521047938 -10.392762857938223, -38.69604154235451 -10.676870633821201, -38.38398396464064 -11.156274872382308 M-38.38398396464064 -11.156274872382308 C-38.177811304148214 -11.432527454726396, -37.97163864365579 -11.708780037070483, -37.63633890812659 -12.158051136245302 M-38.38398396464064 -11.156274872382308 C-38.17018321671523 -11.442748396953528, -37.956382468789826 -11.729221921524747, -37.63633890812659 -12.158051136245302 M-37.63633890812659 -12.158051136245302 C-37.44799627946928 -12.379289104865347, -37.25965365081197 -12.600527073485393, -36.82604594296866 -13.10986736009567 M-37.63633890812659 -12.158051136245302 C-37.332053944179 -12.515481569203075, -37.02776898023142 -12.872912002160849, -36.82604594296866 -13.10986736009567 M-36.82604594296866 -13.10986736009567 C-36.61844148460842 -13.324236007995637, -36.41083702624818 -13.538604655895602, -35.956434736767996 -14.007812326905677 M-36.82604594296866 -13.10986736009567 C-36.55632713602868 -13.38837417258708, -36.28660832908869 -13.666880985078489, -35.956434736767996 -14.007812326905677 M-35.956434736767996 -14.007812326905677 C-35.7292034594358 -14.214177760768633, -35.501972182103614 -14.420543194631591, -35.03107870850189 -14.848196188198107 M-35.956434736767996 -14.007812326905677 C-35.71685752865798 -14.225390008445624, -35.47728032054797 -14.442967689985569, -35.03107870850189 -14.848196188198107 M-35.03107870850189 -14.848196188198107 C-34.69219533119986 -15.118446663531069, -34.35331195389784 -15.38869713886403, -34.05378034457872 -15.627565626425149 M-35.03107870850189 -14.848196188198107 C-34.807373769564364 -15.026594923962344, -34.58366883062685 -15.20499365972658, -34.05378034457872 -15.627565626425149 M-34.05378034457872 -15.627565626425149 C-33.706067332692534 -15.870115171263267, -33.35835432080635 -16.112664716101385, -33.028555573605715 -16.342718045390885 M-34.05378034457872 -15.627565626425149 C-33.75253457894571 -15.83770163181172, -33.45128881331271 -16.047837637198292, -33.028555573605715 -16.342718045390885 M-33.028555573605715 -16.342718045390885 C-32.80734708918424 -16.476815928612528, -32.58613860476277 -16.610913811834173, -31.95961726407679 -16.99071473040609 M-33.028555573605715 -16.342718045390885 C-32.722546455069676 -16.528222571356622, -32.41653733653364 -16.71372709732236, -31.95961726407679 -16.99071473040609 M-31.95961726407679 -16.99071473040609 C-31.69974643739185 -17.126289174232415, -31.439875610706903 -17.261863618058744, -30.851357912792388 -17.56889292409717 M-31.95961726407679 -16.99071473040609 C-31.519478310602047 -17.22033494051141, -31.0793393571273 -17.44995515061673, -30.851357912792388 -17.56889292409717 M-30.851357912792388 -17.56889292409717 C-30.42507217123272 -17.7575969765684, -29.998786429673054 -17.94630102903963, -29.708331595147804 -18.07487676824742 M-30.851357912792388 -17.56889292409717 C-30.532972021262395 -17.709832913695593, -30.214586129732403 -17.850772903294015, -29.708331595147804 -18.07487676824742 M-29.708331595147804 -18.07487676824742 C-29.330854727067464 -18.213791745058902, -28.95337785898713 -18.352706721870387, -28.53523525146062 -18.506587066708033 M-29.708331595147804 -18.07487676824742 C-29.41164660043048 -18.184059588829424, -29.114961605713155 -18.293242409411427, -28.53523525146062 -18.506587066708033 M-28.53523525146062 -18.506587066708033 C-28.233875264779872 -18.596029128884027, -27.932515278099128 -18.685471191060024, -27.336889386235413 -18.862249829261067 M-28.53523525146062 -18.506587066708033 C-28.262513862280407 -18.587529343472937, -27.989792473100195 -18.66847162023784, -27.336889386235413 -18.862249829261067 M-27.336889386235413 -18.862249829261067 C-26.983030248519917 -18.943015868297955, -26.629171110804425 -19.023781907334843, -26.118218259676766 -19.140403561325773 M-27.336889386235413 -18.862249829261067 C-26.920466401674524 -18.95729565807316, -26.504043417113635 -19.052341486885254, -26.118218259676766 -19.140403561325773 M-26.118218259676766 -19.140403561325773 C-25.639567870423285 -19.217788044271067, -25.160917481169804 -19.295172527216366, -24.884229652847882 -19.3399052695533 M-26.118218259676766 -19.140403561325773 C-25.63585597394588 -19.21838815490735, -25.15349368821499 -19.296372748488924, -24.884229652847882 -19.3399052695533 M-24.884229652847882 -19.3399052695533 C-24.622424861984648 -19.365161262861548, -24.360620071121414 -19.390417256169798, -23.639994289623903 -19.45993515863156 M-24.884229652847882 -19.3399052695533 C-24.398325873642868 -19.386779822748412, -23.912422094437858 -19.43365437594353, -23.639994289623903 -19.45993515863156 M-23.639994289623903 -19.45993515863156 C-23.360861398000495 -19.468886407166707, -23.081728506377086 -19.477837655701858, -22.390625000000007 -19.5 M-23.639994289623903 -19.45993515863156 C-23.271087182865383 -19.471765291511183, -22.902180076106863 -19.483595424390806, -22.390625000000007 -19.5 M-22.390625000000007 -19.5 C-22.390625000000004 -19.5, -22.390625000000004 -19.5, -22.390625 -19.5 M-22.390625000000007 -19.5 C-22.390625000000004 -19.5, -22.390625000000004 -19.5, -22.390625 -19.5" stroke="#7a1f1f" stroke-width="2" fill="none" stroke-dasharray="0 0" style="fill:#cc3333 !important;stroke:#7a1f1f !important;stroke-width:2px !important"/></g><g class="label" style="color:#ffffff !important" transform="translate(-29.515625, -12)"><rect/><foreignObject width="59.03125" height="24"><div style="color: rgb(255, 255, 255) !important; display: table-cell; white-space: nowrap; line-height: 1.5; max-width: 200px; text-align: center;" xmlns="http://www.w3.org/1999/xhtml"><span style="color:#ffffff !important" class="nodeLabel"><p>OUTPUT</p></span></div></foreignObject></g></g></g></g></g><defs><filter id="my-svg-drop-shadow" height="130%" width="130%"><feDropShadow dx="4" dy="4" stdDeviation="0" flood-opacity="0.06" flood-color="#000000"/></filter></defs><defs><filter id="my-svg-drop-shadow-small" height="150%" width="150%"><feDropShadow dx="2" dy="2" stdDeviation="0" flood-opacity="0.06" flood-color="#000000"/></filter></defs><linearGradient id="my-svg-gradient" gradientUnits="objectBoundingBox" x1="0%" y1="0%" x2="100%" y2="0%"><stop offset="0%" stop-color="hsl(0, 0%, 83.3333333333%)" stop-opacity="1"/><stop offset="100%" stop-color="hsl(0, 0%, 88.9215686275%)" stop-opacity="1"/></linearGradient></svg>